<?xml version="1.0" encoding="utf-8"?>
<!-- Generator: Adobe Illustrator 25.3.1, SVG Export Plug-In . SVG Version: 6.00 Build 0)  -->
<svg version="1.1" xmlns="http://www.w3.org/2000/svg" xmlns:xlink="http://www.w3.org/1999/xlink" x="0px" y="0px"
	 viewBox="0 0 484 484" style="enable-background:new 0 0 484 484;" xml:space="preserve">
<style type="text/css">
	.st0{display:none;}
</style>
<g id="Layer_1">
	<g>
		<path d="M388.79,145.88H165.1c-6.93,0-13.24,2.84-17.81,7.41c-4.57,4.58-7.41,10.88-7.41,17.81v137.51
			c0,6.93,2.84,13.24,7.41,17.81c4.57,4.58,10.88,7.42,17.81,7.42h156.39c1.6,0,3.05,0.66,4.1,1.71l43.88,43.88V339.6
			c0-3.18,2.58-5.76,5.76-5.76h13.56c6.93,0,13.24-2.84,17.81-7.42c4.58-4.57,7.41-10.88,7.41-17.81V171.1
			c0-6.93-2.84-13.24-7.41-17.81C402.03,148.72,395.72,145.88,388.79,145.88L388.79,145.88z M165.1,134.36h223.69
			c10.11,0,19.3,4.13,25.96,10.79c6.66,6.66,10.79,15.85,10.79,25.96v137.51c0,10.11-4.13,19.3-10.79,25.96
			c-6.66,6.66-15.85,10.79-25.96,10.79H381v47.98l0,0c0,1.47-0.56,2.95-1.69,4.07c-2.25,2.25-5.9,2.25-8.15,0v0l-52.05-52.05h-154
			c-10.11,0-19.3-4.13-25.96-10.79c-6.66-6.66-10.79-15.85-10.79-25.96V171.1c0-10.11,4.13-19.3,10.79-25.96
			C145.81,138.49,154.99,134.36,165.1,134.36z"/>
		<path d="M87.1,86.06h159.12c7.65,0,14.6,3.13,19.64,8.16c5.04,5.04,8.16,11.99,8.16,19.64v26.25c0,3.18-2.58,5.76-5.76,5.76H165.1
			c-6.93,0-13.24,2.84-17.81,7.41c-4.58,4.58-7.41,10.88-7.41,17.81v63.47c0,1.6-0.66,3.05-1.71,4.1l-37.35,37.35v0
			c-2.25,2.25-5.9,2.25-8.15,0c-1.12-1.12-1.69-2.6-1.69-4.07l0,0v-32.47H87.1c-7.65,0-14.6-3.13-19.64-8.16
			c-5.04-5.04-8.16-11.99-8.16-19.64v-97.81c0-7.65,3.13-14.6,8.16-19.64C72.5,89.19,79.45,86.06,87.1,86.06L87.1,86.06z
			 M246.22,97.58H87.1c-4.47,0-8.54,1.83-11.49,4.79c-2.95,2.95-4.79,7.02-4.79,11.49v97.81c0,4.47,1.83,8.54,4.79,11.49
			s7.02,4.79,11.49,4.79h9.64c3.18,0,5.76,2.58,5.76,5.76v24.32l25.85-25.85V171.1c0-10.11,4.13-19.3,10.79-25.96
			c6.66-6.66,15.85-10.79,25.96-10.79h97.4v-20.49c0-4.47-1.83-8.54-4.79-11.49C254.76,99.42,250.69,97.58,246.22,97.58z"/>
	</g>
</g>
<g id="Master_Layer_2" class="st0">
</g>
</svg>
