<?xml version="1.0" encoding="utf-8"?>
<!-- Generator: Adobe Illustrator 25.3.1, SVG Export Plug-In . SVG Version: 6.00 Build 0)  -->
<svg version="1.1" xmlns="http://www.w3.org/2000/svg" xmlns:xlink="http://www.w3.org/1999/xlink" x="0px" y="0px"
	 viewBox="0 0 2024.85 2024.85" style="enable-background:new 0 0 2024.85 2024.85;" xml:space="preserve">
<style type="text/css">
	.st0{display:none;}
	.st1{display:inline;fill:url(#SVGID_1_);}
	.st2{display:inline;opacity:0.6;fill:url(#shadow_1_);}
</style>
<g id="Layer_2" class="st0">
	
		<radialGradient id="SVGID_1_" cx="1014.3073" cy="1006.8253" r="56.1503" gradientTransform="matrix(30.5595 0 0 30.5595 -29972.5312 -29755.6543)" gradientUnits="userSpaceOnUse">
		<stop  offset="0" style="stop-color:#FFFFFF"/>
		<stop  offset="0.3797" style="stop-color:#FDFDFD"/>
		<stop  offset="0.5615" style="stop-color:#F5F6F6"/>
		<stop  offset="0.7012" style="stop-color:#E8E9EA"/>
		<stop  offset="0.8195" style="stop-color:#D6D7D8"/>
		<stop  offset="0.9231" style="stop-color:#BEC0C2"/>
		<stop  offset="1" style="stop-color:#A7A9AC"/>
	</radialGradient>
	<rect x="0" y="0" class="st1" width="2024.84" height="2024.85"/>
	
		<radialGradient id="shadow_1_" cx="483.0652" cy="18186.9863" r="0.8199" gradientTransform="matrix(843.9265 0 0 75.3007 -406378.9688 -1367688.25)" gradientUnits="userSpaceOnUse">
		<stop  offset="0" style="stop-color:#000000"/>
		<stop  offset="0.0535" style="stop-color:#1F1F1F"/>
		<stop  offset="0.1551" style="stop-color:#535353"/>
		<stop  offset="0.2611" style="stop-color:#818181"/>
		<stop  offset="0.3695" style="stop-color:#A8A8A8"/>
		<stop  offset="0.4807" style="stop-color:#C7C7C7"/>
		<stop  offset="0.5958" style="stop-color:#E0E0E0"/>
		<stop  offset="0.7163" style="stop-color:#F1F1F1"/>
		<stop  offset="0.8457" style="stop-color:#FCFCFC"/>
		<stop  offset="1" style="stop-color:#FFFFFF"/>
	</radialGradient>
	<path id="shadow_4_" class="st2" d="M1984.52,1804.62c0,34.1-309.8,61.74-691.96,61.74c-382.16,0-691.96-27.64-691.96-61.74
		c0-34.1,309.8-61.74,691.96-61.74C1674.72,1742.89,1984.52,1770.53,1984.52,1804.62z"/>
</g>
<g id="Layer_1">
	<g>
		<path d="M1501.95,1331.46l-232.12-64.83c-4.45-1.26-8.97-2.21-13.54-2.81c-1.78-0.24-3.81-0.49-6.01-0.71
			c-29.26-2.96-58.33,7.11-79.83,27.17l-71.25,66.51c-1.23,1.17-2.49,2.37-3.66,3.6c-5.57,5.81-34.22,31.67-78.35,0.95
			c-1.32-0.91-2.63-1.82-3.97-2.69c-19.74-12.65-195.88-129.01-344.73-346.57c0,0-24.3-36.44,3.04-64.12c0,0,64.06-67.7,76.57-80.84
			c0.99-1.05,2-2.07,3.04-3.08c5.39-5.28,30.51-33.79,16.58-94.24l-60.7-229.33c-3.66-13.83-10.06-26.78-19.07-37.86
			c-11.68-14.37-30.25-30.51-56.87-35.25c-1.52-0.26-3.06-0.53-4.58-0.87c-11.78-2.51-71.12-14.46-114.65-9.05
			c-11.3,1.4-22.21,4.9-32.37,10c-40.67,20.43-161.24,95.28-162.92,265.24c0,0,1.01,113.38,35.43,215.62
			c0,0,53.65,169.05,166.02,300.65c0,0,168.45,220.46,390.95,353.17c0,0,126.33,72.99,267.04,106.92c0,0,126.48,29.86,227.24-9.62
			c0,0,127.16-43.89,171.46-154.5c4.27-10.65,6.58-21.99,6.94-33.45c0.65-19.64-1.09-54.32-13.89-104.61
			C1567.75,1406.88,1551.05,1344.62,1501.95,1331.46z"/>
		<path d="M1711.23,954.91c-10.62-67.71-32.07-135.05-64.01-200.8c-38.01-78.25-88.87-150.23-151.15-213.92
			c-119.35-122.08-267.25-199.94-420.78-222.48c-25.11-3.69-48.11,14.57-49.95,39.88l-0.15,2.04
			c-1.66,22.85,14.69,42.91,37.35,46.26c273.53,40.53,517.56,285.31,560.68,562.51c3.53,22.67,23.79,38.86,46.66,36.95l1.98-0.16
			C1697.11,1003.1,1715.15,979.95,1711.23,954.91z"/>
		<path d="M1035.66,601.2c119.89,36.36,218.14,102.02,292.47,195.55c53.45,67.25,84.35,138.08,98.13,190.38
			c5.55,21.05,25.87,34.7,47.47,31.98l2.01-0.25c26.13-3.28,43.38-28.82,36.68-54.28c-16.77-63.71-52.84-145.6-114.55-223.25
			c-84.63-106.5-200.33-183.82-336.59-225.4c-23.94-7.31-49.09,7.14-54.95,31.48l-0.46,1.92
			C1000.47,571.79,1013.56,594.5,1035.66,601.2z"/>
		<path d="M1009.69,811.29c37.5,12.72,81.07,40.71,120.47,78.26c41.47,39.52,72.24,83.64,86.85,123.42
			c6.98,19,26.47,30.39,46.53,27.69l1.95-0.26c27.45-3.7,44.72-31.83,35.17-57.83c-19.5-53.08-57.47-108.35-109.04-157.5
			c-48.73-46.44-103.31-80.89-153.82-98.09c-26.74-9.1-54.9,9.42-57.3,37.57l-0.16,1.87C978.64,786.34,990.74,804.87,1009.69,811.29
			z"/>
	</g>
</g>
</svg>
